<svg xmlns="http://www.w3.org/2000/svg" fill="none" viewBox="83.33 67.68 114.94 131.96">
  <circle opacity="0.6" cx="152.378" cy="153.148" r="152.291" fill="#317F8B" style="" transform="matrix(0.377383, 0, 0, 0.38027, 83.295589, 67.358676)"/>
  <path d="M 155.964 184.37 L 128.734 184.37 C 124.063 184.37 120.242 180.186 120.242 175.074 L 120.242 148.736 C 120.242 143.624 124.063 139.441 128.734 139.441 L 155.964 139.441 C 160.635 139.441 164.456 143.624 164.456 148.736 L 164.456 175.074 C 164.456 180.186 160.634 184.37 155.964 184.37 Z" fill="white" style=""/>
  <path d="M 155.964 139.441 C 160.634 139.441 164.456 143.623 164.456 148.736 L 164.456 175.073 C 164.456 180.186 160.634 184.369 155.964 184.369 L 128.734 184.369 C 124.063 184.369 120.242 180.186 120.242 175.073 L 120.242 148.736 C 120.242 143.623 124.063 139.441 128.734 139.441 L 155.964 139.441 Z M 155.964 137.971 L 128.734 137.971 C 127.411 137.971 126.125 138.257 124.911 138.822 C 123.743 139.366 122.691 140.143 121.788 141.132 C 120.884 142.121 120.174 143.272 119.677 144.552 C 119.162 145.881 118.9 147.288 118.9 148.736 L 118.9 175.073 C 118.9 176.522 119.162 177.929 119.677 179.257 C 120.174 180.538 120.884 181.688 121.788 182.677 C 122.691 183.667 123.743 184.443 124.911 184.988 C 126.125 185.552 127.411 185.838 128.734 185.838 L 155.964 185.838 C 157.288 185.838 158.573 185.552 159.786 184.988 C 160.956 184.443 162.007 183.667 162.91 182.677 C 163.815 181.688 164.524 180.538 165.021 179.257 C 165.537 177.929 165.798 176.522 165.798 175.073 L 165.798 148.736 C 165.798 147.288 165.537 145.881 165.021 144.552 C 164.524 143.272 163.815 142.121 162.91 141.132 C 162.007 140.144 160.955 139.366 159.786 138.822 C 158.573 138.257 157.287 137.971 155.964 137.971 Z" fill="#317F8B" style=""/>
  <path d="M 163.847 168.083 C 159.607 168.627 155.381 168.761 155.381 168.761 C 155.381 168.761 153.229 157.014 152.633 147.802 C 152.193 140.977 152.606 135.546 155.381 137.317 C 156.658 138.132 158.128 139.667 159.661 141.615 C 165.411 148.922 172.018 162.042 172.38 164.764 C 172.614 166.514 168.225 167.519 163.847 168.083 Z" fill="white" style=""/>
  <path d="M 154.814 169.544 L 154.698 168.913 C 154.685 168.84 153.368 161.622 152.517 154.148 C 152.015 149.741 151.769 146.103 151.787 143.335 C 151.811 139.553 152.312 137.408 153.365 136.585 C 153.827 136.224 154.613 135.943 155.732 136.659 C 159.425 139.016 164.109 146.525 166.574 150.792 C 168.217 153.639 169.791 156.63 171.004 159.216 C 171.86 161.038 172.912 163.461 173.071 164.653 C 173.118 164.999 173.087 165.525 172.677 166.059 C 172.083 166.833 170.851 167.438 168.798 167.963 C 167.293 168.349 165.359 168.68 163.05 168.949 C 159.141 169.403 155.439 169.525 155.402 169.526 L 154.814 169.544 Z M 154.42 137.742 C 154.286 137.742 154.215 137.798 154.176 137.828 C 153.721 138.184 152.356 140.398 153.9 153.951 C 154.599 160.089 155.615 166.057 155.952 167.975 C 157.143 167.923 159.967 167.772 162.91 167.429 C 169.742 166.633 171.269 165.519 171.608 165.077 C 171.701 164.955 171.694 164.899 171.691 164.874 C 171.493 163.39 168.915 157.706 165.395 151.608 C 161.317 144.549 157.539 139.579 155.03 137.977 C 154.745 137.795 154.552 137.742 154.42 137.742 Z" fill="#317F8B" style=""/>
  <path d="M 133.808 136.884 L 132.949 143.99 L 132.461 148.03 L 131.42 156.656 C 131.42 156.656 129.517 158.073 126.352 159.195 C 125.169 159.615 123.807 159.991 122.304 160.237 C 119.846 160.642 117.005 160.694 113.928 160.004 C 106.007 158.229 101.255 151.79 99.197 148.551 C 95.22 142.302 94.608 140.612 95.713 137.981 C 96.557 135.965 98.003 135.598 98.003 135.598 C 98.003 135.598 97.933 133.985 99.097 133.413 C 102.588 131.696 107.087 136.281 107.087 136.281 C 107.087 136.281 107.254 131.351 109.664 132.489 C 111.324 133.273 111.701 138.64 111.701 138.64 C 111.701 138.64 113.93 141.775 117.471 142.191 C 119.322 142.409 121.882 141.821 124.424 140.967 C 124.454 140.958 124.484 140.949 124.513 140.937 C 125.869 140.479 127.215 139.948 128.448 139.423 C 129.001 139.189 129.531 138.953 130.028 138.728 C 132.25 137.72 133.808 136.884 133.808 136.884 Z" fill="white" style=""/>
  <path opacity="0.35" d="M 99.196 148.551 C 101.255 151.788 106.007 158.229 113.926 160.004 C 118.887 161.115 123.233 160.299 126.352 159.194 C 129.517 158.073 131.42 156.654 131.42 156.654 L 131.56 149.847 C 131.56 149.847 129.403 147.573 127.394 148.5 C 124.981 149.616 125.754 153.404 122.307 154.457 C 112.724 157.387 104.94 152.035 102.435 149.685 C 98.959 146.427 98.053 144.373 97.564 143.526 C 96.552 141.773 95.771 140.396 95.33 139.163 C 94.881 141.249 95.839 143.275 99.196 148.551 Z" fill="#317F8B" style=""/>
  <path d="M 118.705 161.297 C 117.051 161.297 115.405 161.115 113.787 160.752 C 110.227 159.954 106.905 158.157 103.916 155.411 C 101.991 153.643 100.211 151.482 98.624 148.988 C 96.687 145.943 95.456 143.852 94.895 142.171 C 94.357 140.562 94.411 139.256 95.079 137.662 C 95.736 136.093 96.73 135.371 97.331 135.062 C 97.429 134.255 97.812 133.208 98.811 132.717 C 101.65 131.321 104.927 133.481 106.548 134.812 C 106.564 134.721 106.582 134.628 106.6 134.536 C 106.869 133.215 107.334 132.32 107.98 131.873 C 108.377 131.599 109.039 131.362 109.942 131.789 C 110.858 132.222 111.527 133.498 111.986 135.689 C 112.221 136.812 112.334 137.865 112.377 138.332 C 112.87 138.943 114.797 141.11 117.546 141.432 C 122.563 142.021 133.391 136.256 133.5 136.198 C 133.73 136.073 134.005 136.099 134.214 136.264 C 134.422 136.428 134.531 136.705 134.499 136.983 L 132.112 156.755 C 132.087 156.971 131.978 157.164 131.814 157.286 C 131.733 157.345 129.82 158.757 126.639 159.895 C 124.775 160.562 122.857 160.997 120.94 161.186 C 120.195 161.26 119.449 161.297 118.705 161.297 Z M 98.164 136.338 C 98.075 136.366 97.01 136.715 96.346 138.298 C 95.452 140.431 95.672 141.674 99.769 148.115 C 103.62 154.169 108.564 158.022 114.066 159.256 C 119.079 160.38 123.434 159.434 126.205 158.443 C 128.552 157.604 130.173 156.601 130.771 156.201 L 132.948 138.167 C 131.81 138.736 129.95 139.628 127.863 140.485 C 123.217 142.39 119.696 143.22 117.397 142.95 C 113.606 142.506 111.25 139.248 111.151 139.109 C 111.067 138.992 111.017 138.849 111.006 138.7 C 111.006 138.686 110.911 137.383 110.622 136.014 C 110.136 133.705 109.555 133.27 109.389 133.191 C 108.972 132.994 108.792 133.118 108.725 133.164 C 108.138 133.568 107.82 135.246 107.783 136.309 C 107.771 136.607 107.603 136.871 107.351 136.985 C 107.098 137.098 106.81 137.042 106.61 136.838 C 106.568 136.797 102.408 132.622 99.383 134.11 C 98.685 134.453 98.698 135.487 98.7 135.562 C 98.721 135.939 98.502 136.261 98.164 136.338 Z" fill="#317F8B" style=""/>
  <path d="M 107.661 136.279 C 107.677 136.494 107.647 136.689 107.608 136.858 C 107.588 136.945 107.565 137.021 107.541 137.098 C 107.515 137.171 107.488 137.246 107.461 137.312 C 107.351 137.583 107.232 137.807 107.119 138.025 C 107.005 138.241 106.896 138.447 106.794 138.655 L 106.72 138.81 C 106.697 138.862 106.672 138.914 106.649 138.966 L 106.583 139.124 L 106.52 139.283 L 106.463 139.446 L 106.411 139.609 C 106.392 139.665 106.38 139.721 106.363 139.777 C 106.346 139.833 106.333 139.89 106.319 139.946 C 106.266 140.175 106.221 140.41 106.194 140.652 C 106.165 140.894 106.147 141.142 106.142 141.394 C 106.136 141.521 106.138 141.648 106.137 141.777 C 106.135 141.841 106.14 141.906 106.141 141.971 C 106.142 142.035 106.144 142.101 106.144 142.166 L 106.144 142.171 C 106.144 142.222 106.106 142.263 106.059 142.263 C 106.027 142.263 105.998 142.243 105.985 142.213 C 105.873 141.976 105.771 141.729 105.693 141.471 C 105.61 141.214 105.551 140.946 105.508 140.672 C 105.423 140.124 105.425 139.544 105.519 138.976 L 105.558 138.766 C 105.572 138.696 105.589 138.626 105.605 138.557 C 105.621 138.487 105.641 138.419 105.658 138.349 C 105.676 138.282 105.699 138.215 105.719 138.147 C 105.802 137.879 105.907 137.623 106.013 137.384 C 106.12 137.145 106.234 136.92 106.325 136.724 C 106.423 136.526 106.477 136.365 106.509 136.278 L 106.577 136.097 C 106.695 135.782 107.023 135.63 107.311 135.758 C 107.514 135.849 107.643 136.056 107.661 136.279 Z" fill="#317F8B" style=""/>
  <path d="M 113.161 160.528 C 112.984 160.528 112.814 160.422 112.731 160.238 C 112.613 159.978 112.709 159.664 112.947 159.534 C 114.88 158.481 116.202 155.194 116.767 150.028 C 117.205 146.025 117.023 142.302 117.021 142.265 C 117.007 141.976 117.208 141.729 117.473 141.712 C 117.736 141.696 117.963 141.917 117.978 142.207 C 117.98 142.244 118.167 146.047 117.72 150.139 C 117.456 152.561 117.024 154.616 116.437 156.246 C 115.679 158.358 114.647 159.78 113.373 160.474 C 113.305 160.511 113.232 160.528 113.161 160.528 Z" fill="#317F8B" style=""/>
  <g opacity="0.35" transform="matrix(0.338186, 0, 0, 0.371694, 53.040766, 49.51581)" style="">
    <g opacity="0.35">
      <g opacity="0.35">
        <g opacity="0.35">
          <path opacity="0.35" d="M360.704 389.537V389.249C358.437 389.346 360.704 389.537 360.704 389.537Z" fill="#317F8B"/>
        </g>
      </g>
    </g>
  </g>
  <path d="M 165.351 181.414 L 119.298 181.414 C 119.298 181.414 119.58 172.714 122.304 160.237 C 123.395 155.233 124.881 149.622 126.899 143.72 C 127.384 142.304 127.901 140.87 128.448 139.423 C 129.98 135.384 131.765 131.25 133.848 127.114 L 150.802 127.114 C 152.523 130.533 154.042 133.95 155.381 137.317 C 156.248 139.493 157.04 141.646 157.762 143.762 C 160.914 152.984 162.764 161.494 163.847 168.083 C 165.183 176.211 165.351 181.414 165.351 181.414 Z" fill="white" style=""/>
  <path d="M 159.028 150.25 C 159.919 151.338 160.325 152.604 160.701 153.876 C 160.89 154.512 161.076 155.149 161.253 155.789 C 161.342 156.108 161.434 156.429 161.513 156.751 C 161.595 157.073 161.674 157.396 161.753 157.72 L 161.986 158.69 C 162.064 159.013 162.141 159.337 162.213 159.661 L 162.637 161.614 C 162.706 161.94 162.781 162.263 162.849 162.59 L 163.051 163.568 L 163.258 164.544 C 163.328 164.87 163.401 165.195 163.466 165.521 L 163.865 167.479 C 163.933 167.805 163.992 168.132 164.056 168.46 L 164.243 169.442 L 164.336 169.933 L 164.383 170.178 L 164.428 170.424 L 164.602 171.408 C 164.661 171.736 164.721 172.065 164.785 172.392 C 164.845 172.72 164.906 173.047 164.969 173.374 C 165.237 174.681 165.431 176.005 165.512 177.346 C 165.522 177.513 165.535 177.68 165.542 177.849 L 165.562 178.354 C 165.571 178.69 165.579 179.026 165.575 179.364 C 165.573 179.702 165.567 180.041 165.547 180.38 C 165.528 180.72 165.503 181.059 165.456 181.402 C 165.447 181.467 165.391 181.513 165.331 181.503 C 165.289 181.497 165.257 181.467 165.243 181.426 L 165.243 181.425 C 165.023 180.784 164.843 180.141 164.673 179.498 C 164.59 179.177 164.509 178.854 164.431 178.533 L 164.32 178.048 C 164.284 177.887 164.247 177.726 164.211 177.564 C 164.068 176.918 163.942 176.271 163.829 175.619 C 163.775 175.294 163.725 174.967 163.68 174.639 C 163.632 174.312 163.586 173.985 163.54 173.659 C 163.495 173.33 163.447 173.003 163.399 172.676 C 163.347 172.349 163.29 172.025 163.233 171.699 L 163.059 170.723 L 163.015 170.479 L 162.969 170.235 L 162.876 169.749 L 162.69 168.775 C 162.627 168.451 162.569 168.126 162.501 167.803 L 162.104 165.861 C 162.041 165.538 161.967 165.216 161.897 164.894 L 161.679 163.927 L 161.458 162.963 C 161.421 162.803 161.381 162.642 161.341 162.482 L 161.222 162.003 L 160.743 160.084 C 160.578 159.447 160.408 158.811 160.247 158.171 C 160.166 157.852 160.086 157.532 160.008 157.212 L 159.949 156.972 L 159.887 156.733 L 159.766 156.254 C 159.603 155.615 159.45 154.974 159.298 154.332 L 159.187 153.849 C 159.15 153.689 159.11 153.529 159.07 153.368 C 158.992 153.048 158.926 152.722 158.878 152.393 C 158.829 152.061 158.795 151.725 158.781 151.383 C 158.775 151.211 158.774 151.037 158.78 150.861 C 158.786 150.684 158.797 150.505 158.824 150.321 L 158.826 150.314 C 158.836 150.245 158.897 150.198 158.961 150.209 C 158.988 150.215 159.012 150.23 159.028 150.25 Z" fill="#317F8B" style=""/>
  <path d="M 119.19 181.41 C 119.119 181.237 119.071 181.065 119.025 180.893 C 118.98 180.72 118.946 180.549 118.915 180.377 C 118.853 180.033 118.821 179.691 118.802 179.349 C 118.794 179.178 118.788 179.008 118.789 178.838 C 118.79 178.668 118.795 178.498 118.802 178.329 L 118.829 177.822 C 118.837 177.653 118.846 177.483 118.859 177.315 C 118.907 176.64 118.954 175.964 119.025 175.292 C 119.059 174.955 119.095 174.62 119.131 174.284 C 119.148 174.116 119.173 173.949 119.193 173.781 L 119.258 173.278 L 119.393 172.274 C 119.44 171.94 119.496 171.607 119.548 171.275 C 119.654 170.608 119.753 169.941 119.874 169.279 C 119.991 168.615 120.099 167.949 120.218 167.287 C 120.341 166.625 120.459 165.962 120.577 165.299 C 120.607 165.133 120.633 164.967 120.666 164.802 L 120.763 164.307 L 120.956 163.315 L 121.148 162.325 C 121.165 162.243 121.18 162.16 121.198 162.078 L 121.25 161.83 L 121.356 161.338 L 121.779 159.365 C 121.813 159.201 121.851 159.037 121.89 158.873 C 121.926 158.709 121.964 158.545 121.999 158.381 C 122.071 158.053 122.14 157.724 122.209 157.394 C 122.278 157.065 122.346 156.736 122.418 156.406 C 122.487 156.077 122.574 155.753 122.66 155.428 C 122.749 155.104 122.843 154.782 122.941 154.462 C 123.04 154.142 123.145 153.823 123.251 153.506 L 123.416 153.03 C 123.443 152.951 123.474 152.873 123.504 152.795 C 123.534 152.716 123.563 152.638 123.594 152.56 C 123.719 152.248 123.844 151.938 123.977 151.629 C 124.11 151.321 124.247 151.015 124.392 150.712 C 124.536 150.408 124.686 150.107 124.853 149.813 C 124.884 149.756 124.952 149.739 125.004 149.774 C 125.04 149.798 125.058 149.841 125.056 149.883 L 125.056 149.885 C 124.987 151.27 124.75 152.588 124.517 153.906 C 124.456 154.235 124.395 154.563 124.328 154.889 C 124.259 155.216 124.186 155.541 124.109 155.863 C 123.947 156.507 123.785 157.15 123.615 157.792 C 123.53 158.114 123.448 158.435 123.366 158.758 C 123.325 158.918 123.285 159.079 123.246 159.242 C 123.208 159.403 123.168 159.564 123.135 159.727 L 122.717 161.679 L 122.612 162.166 L 122.56 162.411 C 122.543 162.492 122.527 162.574 122.511 162.656 L 122.32 163.636 L 122.129 164.616 L 122.034 165.106 C 122.002 165.269 121.976 165.434 121.945 165.598 C 121.456 168.216 121.126 170.867 120.806 173.512 L 120.682 174.504 C 120.643 174.835 120.604 175.165 120.562 175.496 L 120.315 177.479 C 120.271 177.809 120.234 178.14 120.193 178.47 C 120.173 178.635 120.15 178.8 120.123 178.965 C 120.095 179.13 120.068 179.293 120.034 179.458 C 119.967 179.786 119.884 180.114 119.785 180.441 C 119.736 180.604 119.678 180.768 119.617 180.93 C 119.555 181.093 119.488 181.257 119.405 181.419 L 119.405 181.421 C 119.372 181.484 119.3 181.507 119.243 181.471 C 119.218 181.456 119.201 181.435 119.19 181.41 Z" fill="#317F8B" style=""/>
  <path d="M 132.562 170.437 C 129.935 171.602 125.871 171.357 123.1 170.99 C 121.438 170.77 120.271 169.091 120.516 167.278 C 120.74 165.624 122.07 164.42 123.596 164.498 C 126.187 164.631 130.075 164.694 132.538 164.095" fill="white" style=""/>
  <g opacity="0.35" transform="matrix(0.338186, 0, 0, 0.371694, 53.040766, 49.51581)" style="">
    <g opacity="0.35">
      <g opacity="0.35">
        <g opacity="0.35">
          <path opacity="0.35" d="M235.143 325.322C227.374 328.458 215.355 327.796 207.161 326.815C202.246 326.222 198.797 321.702 199.521 316.827C199.665 315.832 199.98 314.898 200.425 314.046C201.719 316.507 204.169 318.32 207.161 318.682C215.34 319.67 227.339 320.325 235.109 317.209L235.143 325.322Z" fill="#317F8B"/>
        </g>
      </g>
    </g>
  </g>
  <path d="M 127.341 172.057 C 125.821 172.057 124.309 171.92 123.016 171.749 C 122.025 171.618 121.146 171.066 120.54 170.198 C 119.933 169.327 119.679 168.251 119.826 167.167 C 119.959 166.179 120.42 165.285 121.124 164.651 C 121.827 164.014 122.717 163.69 123.629 163.737 C 127.447 163.932 130.557 163.795 132.386 163.351 C 132.753 163.263 133.667 163.258 134.206 165.156 C 134.752 167.081 134.692 170.318 132.824 171.145 C 131.283 171.827 129.305 172.057 127.341 172.057 Z M 123.454 165.259 C 122.328 165.259 121.373 166.156 121.206 167.39 C 121.116 168.062 121.272 168.731 121.649 169.27 C 122.024 169.809 122.57 170.151 123.184 170.232 C 127.147 170.756 130.384 170.578 132.3 169.729 C 132.87 169.477 133.034 168.468 133.077 168.045 C 133.23 166.567 132.82 165.203 132.562 164.871 C 130.065 165.447 126.303 165.402 123.563 165.262 C 123.527 165.259 123.49 165.259 123.454 165.259 Z" fill="#317F8B" style=""/>
  <path d="M 152.652 170.437 C 155.279 171.602 159.344 171.357 162.115 170.99 C 163.777 170.77 164.944 169.091 164.699 167.278 C 164.475 165.624 163.145 164.42 161.619 164.498 C 159.027 164.631 155.139 164.694 152.676 164.095" fill="white" style=""/>
  <g opacity="0.35" transform="matrix(0.338186, 0, 0, 0.371694, 53.040766, 49.51581)" style="">
    <g opacity="0.35">
      <g opacity="0.35">
        <g opacity="0.35">
          <path opacity="0.35" d="M322.523 326.815C314.329 327.796 302.311 328.458 294.541 325.322L294.575 317.134C302.344 320.25 314.343 319.595 322.523 318.606C325.501 318.252 327.937 316.451 329.238 314.004C329.696 314.864 330.018 315.811 330.169 316.826C330.888 321.702 327.438 326.222 322.523 326.815Z" fill="#317F8B"/>
        </g>
      </g>
    </g>
  </g>
  <path d="M 157.874 172.057 C 155.91 172.057 153.931 171.828 152.39 171.145 C 150.522 170.317 150.462 167.081 151.009 165.155 C 151.547 163.258 152.461 163.262 152.828 163.351 C 154.657 163.795 157.769 163.932 161.586 163.736 C 162.498 163.69 163.387 164.014 164.091 164.65 C 164.795 165.285 165.255 166.178 165.389 167.167 C 165.536 168.25 165.282 169.327 164.675 170.198 C 164.069 171.066 163.19 171.618 162.199 171.748 C 160.904 171.92 159.393 172.057 157.874 172.057 Z M 152.652 164.871 C 152.395 165.203 151.984 166.567 152.138 168.045 C 152.182 168.468 152.345 169.477 152.914 169.729 C 154.83 170.579 158.069 170.758 162.031 170.232 C 162.645 170.151 163.19 169.809 163.566 169.27 C 163.942 168.731 164.1 168.062 164.008 167.39 C 163.837 166.116 162.823 165.203 161.652 165.262 C 158.912 165.402 155.15 165.446 152.652 164.871 Z" fill="#317F8B" style=""/>
  <path d="M 153.667 162.001 L 153.667 172.163 C 153.667 174.047 152.257 175.59 150.536 175.59 L 133.44 175.59 C 131.721 175.59 130.311 174.047 130.311 172.163 L 130.311 162.001 C 130.311 160.116 131.721 158.575 133.44 158.575 L 150.536 158.575 C 151.55 158.575 152.455 159.109 153.028 159.933 C 153.429 160.507 153.667 161.225 153.667 162.001 Z" fill="white" style=""/>
  <g opacity="0.35" transform="matrix(0.338186, 0, 0, 0.371694, 53.040766, 49.51581)" style="">
    <g opacity="0.35">
      <g opacity="0.35">
        <g opacity="0.35">
          <path opacity="0.35" d="M297.546 302.626V329.965C297.546 335.037 293.38 339.186 288.287 339.186H237.739C232.647 339.186 228.48 335.037 228.48 329.965V319.739C236.072 327.448 251.003 332.288 264.696 332.36C269.095 332.384 272.645 328.918 272.959 324.546C272.962 324.502 272.966 324.458 272.969 324.415C273.306 320.579 276.477 317.474 280.333 317.197C284.723 316.882 288.43 320.112 288.864 324.31C295.492 316.16 293.551 301.995 295.659 297.063C296.844 298.613 297.546 300.539 297.546 302.626Z" fill="#317F8B"/>
        </g>
      </g>
    </g>
  </g>
  <path d="M 150.536 176.354 L 133.44 176.354 C 131.33 176.354 129.613 174.474 129.613 172.164 L 129.613 162.001 C 129.613 159.691 131.33 157.81 133.44 157.81 L 150.536 157.81 C 152.646 157.81 154.364 159.691 154.364 162.001 L 154.364 172.164 C 154.364 174.474 152.646 176.354 150.536 176.354 Z M 133.44 159.339 C 132.099 159.339 131.008 160.533 131.008 162.001 L 131.008 172.164 C 131.008 173.632 132.099 174.827 133.44 174.827 L 150.536 174.827 C 151.878 174.827 152.969 173.632 152.969 172.164 L 152.969 162.001 C 152.969 160.533 151.878 159.339 150.536 159.339 L 133.44 159.339 Z" fill="#317F8B" style=""/>
  <path d="M 148.044 170.037 C 149.536 170.037 150.745 168.714 150.745 167.082 C 150.745 165.45 149.536 164.127 148.044 164.127 C 146.554 164.127 145.345 165.45 145.345 167.082 C 145.345 168.714 146.554 170.037 148.044 170.037 Z" fill="#22A7F0" style=""/>
  <g opacity="0.7" transform="matrix(0.338186, 0, 0, 0.371694, 53.040766, 49.51581)" style="">
    <g opacity="0.7">
      <g opacity="0.7">
        <g opacity="0.7">
          <path opacity="0.7" d="M288.904 316.297C288.904 316.841 288.852 317.37 288.749 317.886C288.011 314.25 284.787 311.515 280.923 311.515C277.054 311.515 273.829 314.25 273.092 317.886C272.989 317.37 272.937 316.842 272.937 316.297C272.937 311.903 276.512 308.348 280.923 308.348C285.327 308.348 288.904 311.903 288.904 316.297Z" fill="white"/>
        </g>
      </g>
    </g>
  </g>
  <g opacity="0.35" transform="matrix(0.338186, 0, 0, 0.371694, 53.040766, 49.51581)" style="">
    <g opacity="0.35">
      <g opacity="0.35">
        <g opacity="0.35">
          <path opacity="0.35" d="M288.902 316.296C288.902 320.686 285.329 324.244 280.922 324.244C276.514 324.244 272.941 320.686 272.941 316.296C272.941 315.28 273.133 314.311 273.489 313.419C274.638 316.385 277.534 318.484 280.923 318.484C284.311 318.484 287.206 316.385 288.357 313.419C288.71 314.311 288.902 315.279 288.902 316.296Z" fill="#317F8B"/>
        </g>
      </g>
    </g>
  </g>
  <path d="M 148.045 170.61 C 146.268 170.61 144.823 169.027 144.823 167.082 C 144.823 165.136 146.268 163.554 148.045 163.554 C 149.822 163.554 151.268 165.136 151.268 167.082 C 151.268 169.027 149.822 170.61 148.045 170.61 Z M 148.045 164.7 C 146.845 164.7 145.869 165.769 145.869 167.082 C 145.869 168.396 146.845 169.464 148.045 169.464 C 149.245 169.464 150.221 168.396 150.221 167.082 C 150.221 165.769 149.245 164.7 148.045 164.7 Z" fill="#317F8B" style=""/>
  <path d="M 140.394 176.163 C 140.105 176.163 139.871 175.907 139.871 175.59 L 139.871 168.631 L 136.454 165.812 L 136.454 158.574 C 136.454 158.257 136.687 158.002 136.976 158.002 C 137.265 158.002 137.499 158.258 137.499 158.574 L 137.499 165.241 L 140.918 168.059 L 140.918 175.59 C 140.918 175.907 140.683 176.163 140.394 176.163 Z" fill="#317F8B" style=""/>
  <path d="M 142.324 181.062 C 145.348 181.062 148.256 179.834 150.527 177.647 C 153.673 174.62 158.969 171.01 164.815 173.325 C 167.161 174.254 168.759 175.958 169.85 177.844 C 172.658 170.719 178.55 170.292 181.1 174.33 C 181.1 174.33 176.814 196.716 175.417 197.215 C 173.415 197.928 168.607 197.178 168.607 197.178 C 168.607 197.178 151.877 194.698 142.324 194.698 C 132.771 194.698 116.041 197.178 116.041 197.178 C 116.041 197.178 111.232 197.928 109.231 197.215 C 107.834 196.716 103.547 174.33 103.547 174.33 C 106.097 170.291 111.989 170.719 114.798 177.844 C 115.888 175.957 117.487 174.254 119.833 173.325 C 125.678 171.01 130.974 174.62 134.121 177.647 C 136.392 179.833 139.3 181.062 142.324 181.062 Z" fill="white" style=""/>
  <g opacity="0.35" transform="matrix(0.338186, 0, 0, 0.371694, 53.040766, 49.51581)" style="">
    <path d="M378.667 335.794C378.667 335.794 365.991 396.024 361.86 397.365C355.944 399.286 341.721 397.268 341.721 397.268C341.721 397.268 292.255 390.595 264.004 390.595C235.759 390.595 186.287 397.268 186.287 397.268C186.287 397.268 172.069 399.286 166.154 397.365C162.023 396.024 149.347 335.794 149.347 335.794C150.59 334.006 152.096 332.542 153.788 331.433C157.852 349.092 163.617 372.15 166.154 372.972C172.07 374.888 186.287 372.869 186.287 372.869C186.287 372.869 235.759 359.525 264.004 359.525C292.255 359.525 341.721 372.869 341.721 372.869C341.721 372.869 355.944 374.888 361.86 372.972C364.398 372.15 370.162 349.092 374.226 331.433C375.918 332.543 377.424 334.007 378.667 335.794Z" fill="#317F8B"/>
  </g>
  <path d="M 111.81 198.284 C 110.761 198.284 109.736 198.198 109.014 197.941 C 108.523 197.766 108.11 197.169 107.334 194.523 C 106.88 192.975 106.335 190.818 105.715 188.114 C 104.598 183.245 103.51 177.785 103.094 175.664 C 102.876 174.552 103.209 173.403 103.962 172.665 C 105.409 171.248 107.347 170.702 109.281 171.168 C 110.5 171.462 111.685 172.158 112.71 173.182 C 113.559 174.031 114.296 175.09 114.911 176.343 C 116.16 174.599 117.731 173.345 119.595 172.608 C 121.708 171.771 123.919 171.604 126.166 172.113 C 127.98 172.524 129.825 173.377 131.649 174.649 C 131.974 174.874 132.069 175.347 131.863 175.702 C 131.656 176.058 131.224 176.163 130.9 175.937 C 127.146 173.321 123.502 172.684 120.071 174.044 C 118.135 174.81 116.559 176.226 115.388 178.252 C 115.249 178.492 115.001 178.627 114.744 178.605 C 114.486 178.583 114.26 178.406 114.158 178.146 C 112.984 175.169 111.098 173.169 108.981 172.66 C 107.49 172.301 106.001 172.718 104.893 173.804 C 104.511 174.178 104.345 174.767 104.458 175.343 C 104.851 177.346 105.88 182.513 106.952 187.233 C 107.541 189.828 108.064 191.939 108.505 193.507 C 109.123 195.703 109.445 196.347 109.56 196.527 C 111.136 197.01 114.68 196.62 115.943 196.423 C 115.945 196.423 115.946 196.423 115.948 196.422 C 116.115 196.397 132.834 193.935 142.324 193.935 C 151.815 193.935 168.534 196.397 168.7 196.422 C 168.702 196.423 168.704 196.423 168.705 196.423 C 169.968 196.62 173.513 197.01 175.089 196.527 C 175.202 196.35 175.515 195.726 176.112 193.618 C 176.543 192.099 177.052 190.053 177.628 187.535 C 178.653 183.045 179.636 178.16 180.13 175.649 C 180.292 174.825 180.011 173.981 179.412 173.499 C 178.271 172.577 176.856 172.302 175.429 172.725 C 173.384 173.329 171.63 175.255 170.491 178.146 C 170.388 178.406 170.163 178.584 169.905 178.605 C 169.647 178.628 169.399 178.492 169.261 178.252 C 168.089 176.226 166.514 174.81 164.578 174.044 C 161.117 172.673 157.442 173.332 153.656 176.002 C 153.332 176.231 152.9 176.129 152.691 175.774 C 152.483 175.42 152.576 174.947 152.9 174.719 C 154.735 173.424 156.592 172.552 158.419 172.128 C 160.688 171.601 162.921 171.762 165.053 172.608 C 166.918 173.346 168.489 174.6 169.738 176.344 C 171.048 173.678 172.909 171.888 175.065 171.25 C 176.885 170.711 178.771 171.082 180.241 172.27 C 181.28 173.108 181.773 174.56 181.495 175.97 C 180.971 178.631 179.932 183.788 178.865 188.417 C 178.259 191.041 177.727 193.133 177.282 194.632 C 176.526 197.19 176.119 197.769 175.634 197.941 C 173.512 198.698 168.754 197.973 168.512 197.936 C 168.249 197.897 151.693 195.464 142.325 195.464 C 132.954 195.464 116.399 197.897 116.137 197.936 C 115.976 197.96 113.849 198.284 111.81 198.284 Z" fill="#317F8B" style=""/>
  <path d="M 174.174 197.215 L 175.417 197.215 C 176.875 197.215 178.198 196.278 178.792 194.82 C 180.652 190.26 184.044 180.242 180.867 174.128 C 180.775 173.95 180.675 173.778 180.571 173.613 C 180.571 173.613 177.522 170.577 175.331 174.873 C 173.284 178.885 168.989 196.043 174.174 197.215 Z" fill="#AFAFB2" style=""/>
  <g opacity="0.7" transform="matrix(0.338186, 0, 0, 0.371694, 53.040766, 49.51581)" style="">
    <g opacity="0.7">
      <g opacity="0.7">
        <g opacity="0.7">
          <path opacity="0.7" d="M358.287 344.952C358.449 344.693 358.611 344.449 358.769 344.222C366.734 332.666 377.822 340.835 377.822 340.835C378.202 341.278 378.564 341.74 378.897 342.22C380.01 343.803 380.899 345.483 381.594 347.241C381.145 342.921 380.023 338.837 377.975 335.256C377.702 334.776 377.41 334.314 377.1 333.871C377.1 333.871 368.083 325.702 361.605 337.258C360.622 339.008 359.469 341.68 358.287 344.952Z" fill="white"/>
        </g>
      </g>
    </g>
  </g>
  <path d="M 182.074 179.042 C 182.042 179.042 182.011 179.039 181.979 179.033 L 174.357 177.64 C 174.044 177.583 173.832 177.259 173.884 176.915 C 173.936 176.573 174.233 176.341 174.545 176.398 L 182.168 177.791 C 182.481 177.848 182.692 178.172 182.641 178.516 C 182.594 178.824 182.351 179.042 182.074 179.042 Z" fill="#317F8B" style=""/>
  <path d="M 182.026 183.55 C 182 183.55 181.974 183.549 181.949 183.544 L 173.032 182.232 C 172.717 182.186 172.496 181.869 172.538 181.524 C 172.581 181.179 172.87 180.938 173.185 180.984 L 182.101 182.296 C 182.416 182.342 182.637 182.659 182.596 183.003 C 182.556 183.32 182.309 183.55 182.026 183.55 Z" fill="#317F8B" style=""/>
  <path d="M 181.239 187.965 C 181.216 187.965 181.193 187.964 181.169 187.961 L 172.118 186.749 C 171.802 186.706 171.578 186.392 171.617 186.047 C 171.655 185.702 171.942 185.455 172.257 185.498 L 181.308 186.711 C 181.624 186.753 181.848 187.067 181.809 187.412 C 181.773 187.732 181.526 187.965 181.239 187.965 Z" fill="#317F8B" style=""/>
  <path d="M 179.804 192.781 C 179.787 192.781 179.769 192.78 179.752 192.778 L 171.66 191.979 C 171.343 191.948 171.11 191.642 171.138 191.295 C 171.167 190.949 171.446 190.694 171.762 190.725 L 179.855 191.524 C 180.171 191.555 180.405 191.862 180.376 192.208 C 180.349 192.535 180.098 192.781 179.804 192.781 Z" fill="#317F8B" style=""/>
  <g opacity="0.35" transform="matrix(0.338186, 0, 0, 0.371694, 53.040766, 49.51581)" style="">
    <g opacity="0.35">
      <g opacity="0.35">
        <g opacity="0.35">
          <path opacity="0.35" d="M358.185 397.365H361.859C366.172 397.365 370.083 394.845 371.84 390.922C373.261 387.742 374.991 383.584 376.608 378.872C374.402 382.518 369.921 384.83 365.001 384.83H360.622C354.39 383.755 352.045 377.667 351.952 369.688C349.845 383.156 350.423 395.769 358.185 397.365Z" fill="#317F8B"/>
        </g>
      </g>
    </g>
  </g>
  <path d="M 175.417 197.844 L 174.174 197.844 C 174.135 197.844 174.097 197.84 174.059 197.832 C 173.054 197.604 172.295 196.891 171.802 195.712 C 170.641 192.932 171.205 188.09 171.884 184.516 C 172.712 180.15 173.993 176.205 174.829 174.566 C 175.597 173.059 176.566 172.192 177.706 171.988 C 179.455 171.676 180.897 173.088 180.958 173.149 C 180.99 173.179 181.018 173.215 181.043 173.254 C 181.158 173.433 181.267 173.623 181.368 173.817 C 182.82 176.612 183.128 180.434 182.284 185.177 C 181.597 189.033 180.292 192.689 179.318 195.077 C 178.633 196.758 177.102 197.844 175.417 197.844 Z M 174.237 196.585 L 175.417 196.585 C 176.648 196.585 177.767 195.792 178.267 194.563 C 179.216 192.235 180.488 188.676 181.154 184.937 C 181.945 180.497 181.679 176.966 180.367 174.44 C 180.296 174.302 180.22 174.169 180.14 174.04 C 179.925 173.847 178.946 173.038 177.884 173.232 C 177.111 173.373 176.421 174.029 175.834 175.18 C 175.06 176.697 173.807 180.575 173.01 184.773 C 172.101 189.562 172.044 193.262 172.849 195.189 C 173.176 195.971 173.63 196.429 174.237 196.585 Z" fill="#317F8B" style=""/>
  <path d="M 110.474 197.215 L 109.232 197.215 C 107.772 197.215 106.45 196.278 105.856 194.82 C 103.996 190.26 100.606 180.242 103.781 174.128 C 103.874 173.95 103.972 173.778 104.077 173.613 C 104.077 173.613 107.127 170.577 109.318 174.873 C 111.364 178.885 115.659 196.043 110.474 197.215 Z" fill="#AFAFB2" style=""/>
  <g opacity="0.7" transform="matrix(0.338186, 0, 0, 0.371694, 53.040766, 49.51581)" style="">
    <g opacity="0.7">
      <g opacity="0.7">
        <g opacity="0.7">
          <path opacity="0.7" d="M169.723 344.952C169.561 344.693 169.399 344.449 169.241 344.222C161.277 332.666 150.188 340.835 150.188 340.835C149.808 341.278 149.446 341.74 149.113 342.22C148.001 343.803 147.112 345.483 146.417 347.241C146.866 342.921 147.987 338.837 150.035 335.256C150.308 334.776 150.601 334.314 150.91 333.871C150.91 333.871 159.927 325.702 166.405 337.258C167.387 339.008 168.542 341.68 169.723 344.952Z" fill="white"/>
        </g>
      </g>
    </g>
  </g>
  <path d="M 102.573 179.042 C 102.297 179.042 102.054 178.823 102.007 178.516 C 101.955 178.173 102.166 177.848 102.48 177.791 L 110.101 176.398 C 110.415 176.341 110.711 176.573 110.764 176.915 C 110.816 177.259 110.605 177.583 110.291 177.64 L 102.669 179.033 C 102.637 179.039 102.605 179.042 102.573 179.042 Z" fill="#317F8B" style=""/>
  <path d="M 102.622 183.55 C 102.338 183.55 102.091 183.32 102.053 183.004 C 102.01 182.659 102.231 182.343 102.546 182.296 L 111.463 180.984 C 111.778 180.937 112.067 181.179 112.11 181.524 C 112.152 181.869 111.931 182.186 111.616 182.232 L 102.699 183.544 C 102.673 183.549 102.647 183.55 102.622 183.55 Z" fill="#317F8B" style=""/>
  <path d="M 103.409 187.965 C 103.123 187.965 102.874 187.732 102.838 187.412 C 102.8 187.067 103.024 186.753 103.34 186.711 L 112.391 185.498 C 112.706 185.456 112.993 185.701 113.032 186.046 C 113.071 186.392 112.846 186.706 112.53 186.749 L 103.479 187.961 C 103.456 187.964 103.432 187.965 103.409 187.965 Z" fill="#317F8B" style=""/>
  <path d="M 104.844 192.781 C 104.55 192.781 104.3 192.535 104.273 192.207 C 104.244 191.862 104.477 191.556 104.793 191.524 L 112.885 190.725 C 113.202 190.694 113.482 190.949 113.51 191.295 C 113.539 191.642 113.306 191.947 112.99 191.979 L 104.897 192.778 C 104.879 192.78 104.862 192.781 104.844 192.781 Z" fill="#317F8B" style=""/>
  <g opacity="0.35" transform="matrix(0.338186, 0, 0, 0.371694, 53.040766, 49.51581)" style="">
    <g opacity="0.35">
      <g opacity="0.35">
        <g opacity="0.35">
          <path opacity="0.35" d="M169.825 397.365H166.151C161.838 397.365 157.927 394.845 156.171 390.922C154.749 387.742 153.019 383.584 151.402 378.872C153.608 382.518 158.089 384.83 163.009 384.83H167.388C173.621 383.755 175.965 377.667 176.058 369.688C178.165 383.156 177.586 395.769 169.825 397.365Z" fill="#317F8B"/>
        </g>
      </g>
    </g>
  </g>
  <path d="M 110.474 197.844 L 109.231 197.844 C 107.546 197.844 106.016 196.758 105.33 195.077 C 104.357 192.689 103.051 189.034 102.365 185.177 C 101.521 180.435 101.829 176.612 103.281 173.817 C 103.382 173.623 103.491 173.434 103.605 173.254 C 103.63 173.215 103.658 173.18 103.69 173.149 C 103.75 173.088 105.192 171.676 106.942 171.989 C 108.083 172.192 109.051 173.059 109.82 174.567 C 110.656 176.205 111.935 180.15 112.765 184.516 C 113.443 188.09 114.007 192.933 112.846 195.713 C 112.353 196.892 111.594 197.604 110.59 197.832 C 110.551 197.84 110.512 197.844 110.474 197.844 Z M 104.507 174.04 C 104.428 174.169 104.352 174.302 104.281 174.44 C 102.969 176.966 102.704 180.497 103.494 184.937 C 104.16 188.677 105.431 192.235 106.38 194.563 C 106.881 195.792 108 196.585 109.231 196.585 L 110.411 196.585 C 111.018 196.429 111.473 195.971 111.799 195.189 C 112.604 193.262 112.548 189.562 111.637 184.773 C 110.841 180.575 109.589 176.697 108.815 175.18 C 108.228 174.029 107.537 173.373 106.763 173.232 C 105.704 173.039 104.726 173.845 104.507 174.04 Z" fill="#317F8B" style=""/>
  <path d="M 124.499 196.64 C 124.417 196.64 124.334 196.619 124.256 196.574 C 124.001 196.428 123.901 196.082 124.036 195.802 C 126.221 191.232 126.252 186.093 124.132 180.528 C 122.531 176.33 120.241 173.458 120.218 173.429 C 120.027 173.192 120.048 172.83 120.264 172.621 C 120.481 172.412 120.811 172.434 121.003 172.672 C 121.1 172.792 123.416 175.69 125.085 180.053 C 126.07 182.629 126.619 185.177 126.718 187.627 C 126.842 190.708 126.252 193.637 124.962 196.333 C 124.869 196.528 124.687 196.64 124.499 196.64 Z" fill="#317F8B" style=""/>
  <path d="M 160.361 196.64 C 160.173 196.64 159.991 196.528 159.897 196.333 C 158.609 193.637 158.018 190.708 158.142 187.627 C 158.241 185.177 158.79 182.629 159.775 180.054 C 161.443 175.69 163.76 172.792 163.858 172.672 C 164.049 172.434 164.379 172.412 164.596 172.621 C 164.813 172.83 164.833 173.192 164.642 173.429 C 164.619 173.458 162.328 176.33 160.728 180.528 C 158.607 186.093 158.64 191.232 160.825 195.802 C 160.958 196.082 160.859 196.428 160.603 196.574 C 160.526 196.619 160.443 196.64 160.361 196.64 Z" fill="#317F8B" style=""/>
  <g opacity="0.35" transform="matrix(0.338186, 0, 0, 0.371694, 53.040766, 49.51581)" style="">
    <path d="M315.271 247.779C313.486 249.813 311.609 251.745 309.654 253.559C305.013 257.863 299.928 261.525 294.487 264.428C285.297 269.338 275.101 272.092 264.364 272.143C253.874 272.189 243.89 269.651 234.84 265.039C228.914 262.013 223.391 258.104 218.394 253.446C215.908 251.124 213.551 248.622 211.338 245.957C215.346 244.724 219.327 243.296 222.972 241.883C227.5 231.019 232.781 219.893 238.939 208.768H289.071C294.162 217.967 298.653 227.161 302.614 236.217C306.39 238.41 310.737 242.54 315.271 247.779Z" fill="#317F8B"/>
  </g>
  <path d="M 168.213 123.177 C 167.919 123.212 167.654 122.978 167.622 122.655 L 165.967 105.799 C 165.935 105.475 166.149 105.185 166.444 105.151 C 169.542 104.786 172.321 107.239 172.654 110.63 L 173.22 116.378 C 173.553 119.769 171.311 122.813 168.213 123.177 Z" fill="white" style=""/>
  <path d="M 168.155 123.325 C 168.003 123.325 167.856 123.269 167.736 123.163 C 167.596 123.04 167.51 122.865 167.49 122.671 L 165.836 105.815 C 165.816 105.619 165.868 105.427 165.98 105.275 C 166.092 105.123 166.252 105.028 166.43 105.006 C 169.596 104.634 172.447 107.15 172.787 110.615 L 173.351 116.363 C 173.516 118.042 173.074 119.689 172.106 121.003 C 171.139 122.318 169.761 123.141 168.228 123.322 L 168.213 123.177 L 168.228 123.322 C 168.204 123.324 168.179 123.325 168.155 123.325 Z M 167.051 105.259 C 166.855 105.259 166.657 105.271 166.458 105.294 C 166.351 105.307 166.255 105.365 166.186 105.457 C 166.118 105.549 166.087 105.665 166.099 105.783 L 167.754 122.639 C 167.765 122.757 167.818 122.862 167.903 122.936 C 167.986 123.011 168.092 123.046 168.2 123.033 C 169.663 122.86 170.977 122.075 171.9 120.821 C 172.823 119.567 173.246 117.995 173.088 116.394 L 172.525 110.645 C 172.22 107.557 169.827 105.259 167.051 105.259 Z" fill="#317F8B" style=""/>
  <g opacity="0.35" transform="matrix(0.338186, 0, 0, 0.371694, 53.040766, 49.51581)" style="">
    <g opacity="0.35">
      <g opacity="0.35">
        <g opacity="0.35">
          <path opacity="0.35" d="M354.58 172.631L355.364 179.884C356.347 189.003 349.721 197.195 340.561 198.178C339.688 198.273 338.904 197.639 338.81 196.77L337.505 184.715C337.809 185.238 338.403 185.559 339.044 185.495L340.123 185.377C347.36 184.603 353.02 179.323 354.58 172.631Z" fill="#317F8B"/>
        </g>
      </g>
    </g>
  </g>
  <path d="M 168.155 123.988 C 167.865 123.988 167.585 123.881 167.357 123.679 C 167.091 123.445 166.925 123.112 166.888 122.742 L 165.234 105.885 C 165.197 105.514 165.295 105.15 165.508 104.86 C 165.723 104.569 166.027 104.387 166.365 104.348 C 169.862 103.936 173.013 106.716 173.389 110.544 L 173.953 116.292 C 174.135 118.146 173.646 119.967 172.577 121.42 C 171.508 122.872 169.987 123.781 168.292 123.98 C 168.247 123.985 168.2 123.988 168.155 123.988 Z M 168.136 122.375 L 168.135 122.375 C 168.135 122.375 168.135 122.375 168.136 122.375 Z M 166.724 105.934 L 168.334 122.346 C 169.557 122.149 170.649 121.465 171.429 120.406 C 172.251 119.29 172.626 117.89 172.486 116.465 L 171.923 110.716 C 171.641 107.846 169.331 105.743 166.724 105.934 Z" fill="#317F8B" style=""/>
  <path d="M 115.618 111.129 C 115.913 111.095 116.179 111.328 116.21 111.651 L 117.865 128.508 C 117.897 128.831 117.684 129.121 117.387 129.156 C 114.291 129.52 111.51 127.067 111.177 123.676 L 110.613 117.928 C 110.28 114.537 112.52 111.494 115.618 111.129 Z" fill="white" style=""/>
  <path d="M 116.781 129.337 C 113.872 129.337 111.363 126.928 111.045 123.692 L 110.481 117.944 C 110.141 114.479 112.439 111.357 115.604 110.984 L 115.618 111.129 L 115.604 110.984 C 115.972 110.942 116.302 111.234 116.342 111.637 L 117.997 128.493 C 118.036 128.895 117.769 129.256 117.402 129.3 C 117.194 129.325 116.986 129.337 116.781 129.337 Z M 115.675 111.271 C 115.661 111.271 115.647 111.271 115.632 111.273 C 112.612 111.628 110.419 114.607 110.744 117.913 L 111.309 123.661 C 111.633 126.967 114.354 129.367 117.373 129.012 C 117.595 128.986 117.757 128.767 117.733 128.524 L 116.078 111.668 C 116.056 111.44 115.88 111.271 115.675 111.271 Z" fill="#317F8B" style=""/>
  <g opacity="0.35" transform="matrix(0.338186, 0, 0, 0.371694, 53.040766, 49.51581)" style="">
    <g opacity="0.35">
      <g opacity="0.35">
        <g opacity="0.35">
          <path opacity="0.35" d="M190.328 199.936L191.684 212.517C191.78 213.387 191.142 214.167 190.27 214.261C185.463 214.774 180.909 213.201 177.527 210.267C174.474 207.617 172.376 203.852 171.908 199.521L171.205 193.005C174.422 198.444 180.643 201.806 187.359 201.089L189.02 200.911C189.625 200.845 190.105 200.455 190.328 199.936Z" fill="#317F8B"/>
        </g>
      </g>
    </g>
  </g>
  <path d="M 116.781 130 C 113.566 130 110.794 127.339 110.443 123.763 L 109.879 118.015 C 109.503 114.186 112.043 110.738 115.539 110.326 C 116.238 110.244 116.869 110.8 116.944 111.565 L 118.599 128.422 C 118.674 129.188 118.166 129.877 117.466 129.959 C 117.236 129.986 117.007 130 116.781 130 Z M 115.499 111.96 C 112.914 112.38 111.065 114.972 111.346 117.843 L 111.91 123.59 C 112.192 126.46 114.502 128.563 117.109 128.372 L 115.499 111.96 Z" fill="#317F8B" style=""/>
  <path d="M 141.919 146.043 C 156.494 146.043 168.31 133.108 168.31 117.153 C 168.31 101.197 156.494 88.263 141.919 88.263 C 127.343 88.263 115.528 101.197 115.528 117.153 C 115.528 133.108 127.343 146.043 141.919 146.043 Z" fill="white" style=""/>
  <path d="M 141.894 146.188 C 138.658 146.188 135.496 145.554 132.483 144.296 C 129.278 142.959 126.374 140.979 123.852 138.411 C 121.33 135.843 119.317 132.815 117.868 129.412 C 116.368 125.889 115.542 122.117 115.413 118.2 C 115.284 114.283 115.859 110.455 117.123 106.824 C 118.344 103.315 120.153 100.137 122.5 97.376 C 124.846 94.615 127.612 92.41 130.72 90.824 C 133.939 89.182 137.384 88.278 140.963 88.136 C 144.541 87.994 148.038 88.625 151.355 90.009 C 154.56 91.346 157.464 93.327 159.985 95.894 C 162.507 98.463 164.521 101.491 165.97 104.893 C 167.47 108.416 168.296 112.188 168.426 116.105 C 168.555 120.022 167.979 123.85 166.715 127.482 C 165.494 130.99 163.684 134.168 161.338 136.93 C 158.992 139.691 156.226 141.895 153.118 143.481 C 149.9 145.123 146.454 146.027 142.876 146.168 C 142.547 146.182 142.22 146.188 141.894 146.188 Z M 141.931 88.407 C 141.612 88.407 141.294 88.413 140.973 88.426 C 126.503 88.999 115.155 102.349 115.678 118.19 C 115.93 125.862 118.898 132.968 124.032 138.198 C 128.93 143.187 135.242 145.898 141.895 145.898 C 142.218 145.898 142.541 145.891 142.865 145.879 C 149.874 145.603 156.366 142.354 161.144 136.732 C 165.921 131.111 168.412 123.789 168.16 116.117 C 167.65 100.629 155.976 88.407 141.931 88.407 Z" fill="#317F8B" style=""/>
  <g opacity="0.35" transform="matrix(0.338186, 0, 0, 0.371694, 53.040766, 49.51581)" style="">
    <g opacity="0.35">
      <g opacity="0.35">
        <g opacity="0.35">
          <path opacity="0.35" d="M339.658 168.44C340.281 171.935 340.664 175.515 340.796 179.166C342.344 222.064 308.69 258.094 265.62 259.645C222.55 261.187 186.376 227.667 184.819 184.77C184.774 183.537 184.758 182.301 184.772 181.083C191.399 218.705 225.028 246.647 264.435 245.232C306.267 243.726 339.211 209.698 339.658 168.44Z" fill="#317F8B"/>
        </g>
      </g>
    </g>
  </g>
  <path d="M 141.894 146.851 C 138.584 146.851 135.351 146.201 132.268 144.916 C 128.989 143.549 126.02 141.523 123.441 138.895 C 120.861 136.268 118.802 133.172 117.321 129.692 C 115.785 126.088 114.94 122.229 114.808 118.224 C 114.677 114.217 115.265 110.302 116.558 106.587 C 117.808 102.999 119.658 99.747 122.058 96.925 C 124.458 94.1 127.286 91.846 130.465 90.224 C 133.757 88.544 137.282 87.619 140.941 87.475 C 144.601 87.33 148.177 87.974 151.572 89.391 C 154.849 90.758 157.82 92.783 160.398 95.41 C 162.978 98.037 165.037 101.134 166.519 104.614 C 168.054 108.218 168.898 112.076 169.03 116.083 C 169.162 120.089 168.573 124.004 167.28 127.719 C 166.032 131.307 164.18 134.558 161.781 137.382 C 159.381 140.205 156.553 142.46 153.374 144.082 C 150.081 145.763 146.557 146.687 142.897 146.831 C 142.562 146.844 142.227 146.851 141.894 146.851 Z M 141.931 89.07 C 141.62 89.07 141.309 89.076 140.995 89.089 C 126.858 89.647 115.773 102.691 116.283 118.165 C 116.531 125.662 119.429 132.604 124.446 137.714 C 129.231 142.586 135.395 145.236 141.897 145.236 C 142.212 145.236 142.528 145.23 142.845 145.217 C 149.692 144.947 156.033 141.773 160.701 136.282 C 165.369 130.791 167.803 123.637 167.556 116.141 C 167.057 101.009 155.653 89.07 141.931 89.07 Z" fill="#317F8B" style=""/>
  <path d="M 168.233 116.856 C 168.498 122.502 167.069 127.838 164.408 132.335 C 162.414 135.706 153.856 141.892 142.964 142.61 C 132.866 143.276 123.397 137.894 121.098 134.763 C 118.032 130.586 116.113 125.439 115.848 119.793 C 115.15 104.853 126.585 98.001 141.052 97.19 C 155.518 96.378 167.534 101.915 168.233 116.856 Z" fill="#17A2B8" style=""/>
  <path d="M 141.211 143.222 C 136.19 143.222 131.822 141.853 128.923 140.628 C 125.251 139.078 122.025 136.913 120.702 135.111 C 117.457 130.689 115.603 125.402 115.341 119.821 C 115.168 116.118 115.726 112.757 116.999 109.833 C 118.197 107.081 120.035 104.697 122.463 102.745 C 126.897 99.18 133.316 97.067 141.025 96.636 C 148.736 96.204 155.318 97.588 160.062 100.637 C 162.659 102.307 164.71 104.473 166.158 107.078 C 167.697 109.844 168.566 113.124 168.739 116.828 C 169 122.409 167.649 127.876 164.833 132.637 C 163.663 134.615 160.757 137.04 157.249 138.964 C 154.168 140.655 149.193 142.756 142.994 143.164 C 142.392 143.203 141.797 143.222 141.211 143.222 Z M 143.748 97.668 C 142.875 97.668 141.985 97.693 141.078 97.744 C 133.566 98.165 127.337 100.204 123.063 103.641 C 118.29 107.476 116.033 112.902 116.355 119.764 C 116.604 125.11 118.381 130.178 121.492 134.415 C 122.418 135.676 125.016 137.789 129.288 139.593 C 132.432 140.92 137.349 142.424 142.933 142.056 C 148.962 141.659 153.799 139.615 156.796 137.971 C 160.811 135.768 163.177 133.396 163.983 132.034 C 166.683 127.469 167.978 122.232 167.728 116.885 C 167.407 110.022 164.655 104.877 159.549 101.594 C 155.529 99.01 150.104 97.668 143.748 97.668 Z" fill="#317F8B" style=""/>
  <g opacity="0.5" transform="matrix(0.338186, 0, 0, 0.371694, 53.040766, 49.51581)" style="">
    <g opacity="0.5">
      <g opacity="0.5">
        <g opacity="0.5">
          <path d="M325.082 178.264C326.056 170.73 322.402 164.052 316.921 163.349C311.44 162.646 306.207 168.184 305.233 175.719C304.259 183.253 307.913 189.931 313.394 190.634C318.875 191.337 324.108 185.799 325.082 178.264Z" fill="white"/>
        </g>
      </g>
    </g>
  </g>
  <g opacity="0.5" transform="matrix(0.338186, 0, 0, 0.371694, 53.040766, 49.51581)" style="">
    <g opacity="0.5">
      <g opacity="0.5">
        <g opacity="0.5">
          <path d="M309.571 206.269C310.494 202.906 308.893 199.54 305.995 198.751C303.097 197.963 300 200.05 299.077 203.413C298.154 206.777 299.755 210.142 302.653 210.931C305.551 211.72 308.648 209.633 309.571 206.269Z" fill="white"/>
        </g>
      </g>
    </g>
  </g>
  <g opacity="0.35" transform="matrix(0.338186, 0, 0, 0.371694, 53.040766, 49.51581)" style="">
    <path d="M323.627 144.438C333.558 152.954 339.785 165.024 340.618 181.168C341.399 196.36 337.17 210.715 329.31 222.814C323.41 231.885 298.102 248.525 265.896 250.461C254.525 251.146 243.427 249.468 233.662 246.659C273.199 243.44 304.018 223.029 311.332 211.778C321.317 196.421 326.679 178.199 325.685 158.925C325.424 153.773 324.718 148.949 323.627 144.438Z" fill="#317F8B"/>
  </g>
  <path d="M 117.224 107.719 C 117.076 107.719 116.926 107.668 116.798 107.563 C 116.497 107.314 116.427 106.854 116.633 106.514 C 117.728 104.545 119.126 102.745 120.789 101.165 C 122.408 99.626 124.291 98.283 126.385 97.173 C 128.436 96.086 130.702 95.215 133.121 94.585 C 135.518 93.96 138.077 93.568 140.728 93.419 C 143.334 93.273 145.889 93.372 148.32 93.713 C 150.773 94.056 153.106 94.647 155.252 95.467 C 157.448 96.307 159.457 97.392 161.224 98.69 C 163.041 100.027 164.612 101.598 165.895 103.36 C 166.119 103.631 166.142 104.049 165.932 104.35 C 165.696 104.692 165.25 104.758 164.938 104.498 L 164.863 104.438 L 164.807 104.36 C 160.056 97.805 151.306 94.383 140.801 94.971 C 130.236 95.564 121.866 100.073 117.834 107.341 L 117.817 107.374 L 117.792 107.41 C 117.653 107.611 117.44 107.719 117.224 107.719 Z" fill="#317F8B" style=""/>
  <g opacity="0.5" transform="matrix(0.338186, 0, 0, 0.371694, 53.040766, 49.51581)" style="">
    <g opacity="0.5">
      <g opacity="0.5">
        <g opacity="0.5">
          <path d="M204.341 212.096C204.341 212.096 189.803 173.08 210.447 156.183C231.091 139.286 261.965 137.776 261.345 139.784C261.345 139.784 227.593 149.768 215.604 177.359C206.359 198.636 204.341 212.096 204.341 212.096Z" fill="white"/>
        </g>
      </g>
    </g>
  </g>
  <path d="M 165.837 198.877 L 119.031 198.877 C 117.516 198.877 116.287 197.532 116.287 195.873 C 116.287 194.917 116.995 194.142 117.868 194.142 L 167 194.142 C 167.873 194.142 168.581 194.917 168.581 195.873 C 168.581 197.532 167.352 198.877 165.837 198.877 Z" fill="#E6E9FA" style=""/>
  <g opacity="0.3" transform="matrix(0.338186, 0, 0, 0.371694, 53.040766, 49.51581)" style="">
    <g opacity="0.3">
      <g opacity="0.3">
        <g opacity="0.3">
          <path opacity="0.3" d="M341.643 393.756C341.643 394.639 341.499 395.488 341.236 396.284C340.509 394.655 338.874 393.526 336.972 393.526H191.69C190.401 393.526 189.231 394.044 188.385 394.892C187.983 395.293 187.653 395.761 187.421 396.285C187.158 395.489 187.014 394.642 187.014 393.757C187.014 392.473 187.535 391.308 188.386 390.465C189.232 389.618 190.402 389.099 191.692 389.099H336.972C339.555 389.098 341.643 391.182 341.643 393.756Z" fill="white"/>
        </g>
      </g>
    </g>
  </g>
  <g opacity="0.35" transform="matrix(0.338186, 0, 0, 0.371694, 53.040766, 49.51581)" style="">
    <g opacity="0.35">
      <g opacity="0.35">
        <g opacity="0.35">
          <path opacity="0.35" d="M341.643 393.756C341.643 395.986 340.736 398.01 339.265 399.468C337.8 400.931 335.768 401.836 333.531 401.836H195.13C190.649 401.836 187.013 398.22 187.013 393.756C187.013 392.898 187.245 392.092 187.657 391.398C188.884 394.291 191.772 396.325 195.129 396.325H333.53C335.768 396.325 337.8 395.421 339.264 393.956C339.996 393.227 340.59 392.359 340.997 391.398C341.412 392.092 341.643 392.898 341.643 393.756Z" fill="#317F8B"/>
        </g>
      </g>
    </g>
  </g>
  <path d="M 165.837 199.641 L 119.031 199.641 C 117.133 199.641 115.589 197.951 115.589 195.874 C 115.589 194.498 116.611 193.379 117.868 193.379 L 167 193.379 C 168.256 193.379 169.279 194.498 169.279 195.874 C 169.279 197.951 167.735 199.641 165.837 199.641 Z M 117.868 194.906 C 117.38 194.906 116.984 195.339 116.984 195.874 C 116.984 197.109 117.902 198.114 119.03 198.114 L 165.837 198.114 C 166.966 198.114 167.883 197.109 167.883 195.874 C 167.883 195.34 167.487 194.906 167 194.906 L 117.868 194.906 Z" fill="#317F8B" style=""/>
  <path d="M 171.313 160.322 L 166.735 194.141 L 118.134 194.141 L 117.968 192.918 L 113.553 160.322 C 113.408 159.251 114.167 158.29 115.154 158.29 L 169.711 158.29 C 170.701 158.29 171.457 159.251 171.313 160.322 Z" fill="#FF66AC" style=""/>
  <path d="M 171.313 160.322 L 166.735 194.141 L 118.134 194.141 L 117.968 192.918 L 113.553 160.322 C 113.408 159.251 114.167 158.29 115.154 158.29 L 169.711 158.29 C 170.701 158.29 171.457 159.251 171.313 160.322 Z" fill="#E6E9FA" style=""/>
  <g opacity="0.5" transform="matrix(0.338186, 0, 0, 0.371694, 53.040766, 49.51581)" style="">
    <g opacity="0.5">
      <g opacity="0.5">
        <g opacity="0.5">
          <path opacity="0.5" d="M184.034 303.757C183.607 300.876 185.85 298.292 188.768 298.292H349.698L349.725 298.11C350.152 295.229 347.915 292.645 344.991 292.645H183.667C180.748 292.645 178.505 295.229 178.933 298.11L191.985 385.806L192.475 389.098H196.738L184.034 303.757Z" fill="white"/>
        </g>
      </g>
    </g>
  </g>
  <g opacity="0.35" transform="matrix(0.338186, 0, 0, 0.371694, 53.040766, 49.51581)" style="">
    <g opacity="0.35">
      <g opacity="0.35">
        <g opacity="0.35">
          <path opacity="0.35" d="M340.454 292.644H329.126C333.422 308.317 331.052 343.71 303.341 362.208C268.554 385.428 205.862 385.28 192.552 385.804L193.042 389.096H331.652L345.189 298.109C345.616 295.228 343.379 292.644 340.454 292.644Z" fill="#317F8B"/>
        </g>
      </g>
    </g>
  </g>
  <path d="M 167.336 194.906 L 117.532 194.906 L 112.864 160.433 C 112.765 159.703 112.962 158.965 113.401 158.405 C 113.842 157.847 114.481 157.527 115.155 157.527 L 169.713 157.527 C 170.387 157.527 171.026 157.847 171.466 158.405 C 171.907 158.965 172.102 159.703 172.004 160.433 L 167.336 194.906 Z M 118.735 193.378 L 166.133 193.378 L 170.623 160.209 C 170.664 159.915 170.587 159.629 170.41 159.403 C 170.232 159.178 169.985 159.054 169.713 159.054 L 115.155 159.054 C 114.883 159.054 114.635 159.178 114.458 159.403 C 114.28 159.629 114.205 159.915 114.244 160.209 L 118.735 193.378 Z" fill="#317F8B" style=""/>
  <g opacity="0.3" transform="matrix(0.338186, 0, 0, 0.371694, 53.040766, 49.51581)" style="">
    <g opacity="0.3">
      <g opacity="0.3">
        <g opacity="0.3">
          <path opacity="0.3" d="M203.915 367.839C198.463 355.87 194.493 335.438 195.387 323.413C196.282 311.388 203.284 315.068 205.454 330.471C211.23 371.463 206.348 373.183 203.915 367.839Z" fill="white"/>
        </g>
      </g>
    </g>
  </g>
  <path d="M 148.783 172.378 C 148.843 171.807 148.911 171.23 148.81 170.65 C 148.764 170.587 148.722 170.523 148.677 170.459 C 148.525 170.4 148.379 170.322 148.221 170.28 C 147.115 169.967 145.994 169.843 144.855 169.95 C 143.37 170.09 142.007 170.592 140.835 171.625 C 140.41 171.998 140.023 172.419 139.627 172.827 C 139.521 172.939 139.439 172.985 139.289 172.909 C 138.939 172.735 138.561 172.657 138.177 172.636 C 137.147 172.585 136.228 172.949 135.371 173.539 C 134.442 174.179 133.694 175.035 132.997 175.951 C 132.7 176.339 132.815 176.773 133.257 176.936 C 133.536 177.036 133.815 177.134 134.094 177.233 C 134.762 177.47 135.428 177.705 136.094 177.941 C 136.093 177.963 136.094 177.975 136.091 177.987 C 136.086 178.001 136.08 178.017 136.071 178.031 C 135.793 178.422 135.86 178.784 136.153 179.125 C 136.184 179.162 136.212 179.207 136.24 179.247 C 136.394 179.469 136.55 179.691 136.712 179.921 C 136.491 180.11 136.272 180.268 136.079 180.462 C 135.982 180.559 135.896 180.699 135.86 180.839 C 135.797 181.065 135.903 181.296 136.087 181.414 C 136.282 181.542 136.481 181.537 136.662 181.394 C 136.892 181.215 137.111 181.021 137.345 180.825 C 137.565 181.144 137.775 181.445 137.984 181.743 C 138.225 182.08 138.39 182.139 138.764 182.026 C 138.831 182.003 138.898 181.987 138.979 181.966 C 138.983 182.052 138.99 182.122 138.993 182.188 C 139.041 183.243 139.085 184.299 139.137 185.351 C 139.162 185.85 139.522 186.085 139.933 185.871 C 140.304 185.679 140.676 185.476 141.039 185.259 C 141.88 184.76 142.643 184.148 143.252 183.334 C 144.015 182.309 144.438 181.166 144.24 179.814 C 144.231 179.761 144.272 179.67 144.315 179.642 C 144.689 179.378 145.073 179.131 145.448 178.864 C 146.294 178.261 146.975 177.476 147.508 176.537 C 148.231 175.263 148.63 173.864 148.783 172.378 Z M 136.646 176.942 C 135.874 176.667 135.074 176.381 134.253 176.089 C 135.102 175.102 136 174.24 137.209 173.875 C 137.732 173.718 138.336 173.731 138.693 173.89 C 138.015 174.902 137.337 175.914 136.646 176.942 Z M 143.132 181.282 C 142.936 181.967 142.562 182.523 142.101 183.021 C 141.528 183.631 140.861 184.087 140.14 184.503 C 140.097 183.534 140.052 182.585 140.008 181.656 C 141.098 181.191 142.165 180.738 143.236 180.283 C 143.278 180.605 143.227 180.948 143.132 181.282 Z M 147.157 174.789 C 146.807 175.695 146.347 176.521 145.69 177.204 C 145.183 177.728 144.609 178.149 144.004 178.522 C 142.364 179.537 140.605 180.236 138.807 180.826 C 138.719 180.855 138.666 180.85 138.608 180.761 C 138.483 180.566 138.342 180.378 138.209 180.186 C 138.201 180.175 138.197 180.156 138.185 180.122 C 138.23 180.082 138.28 180.042 138.329 180.001 C 139.355 179.138 140.386 178.278 141.412 177.415 C 141.708 177.169 141.721 176.745 141.447 176.501 C 141.255 176.329 141.002 176.332 140.781 176.513 C 140.164 177.029 139.548 177.544 138.932 178.062 C 138.472 178.446 138.017 178.829 137.54 179.23 C 137.377 178.996 137.218 178.783 137.076 178.557 C 137.051 178.517 137.076 178.415 137.109 178.365 C 137.656 177.471 138.198 176.574 138.767 175.696 C 139.33 174.825 139.97 174.019 140.674 173.281 C 141.334 172.582 142.05 171.966 142.915 171.599 C 143.469 171.362 144.041 171.202 144.631 171.133 C 144.686 171.124 144.764 171.183 144.801 171.237 C 145.402 172.087 145.995 172.939 146.591 173.793 C 146.77 174.047 146.946 174.306 147.13 174.557 C 147.186 174.632 147.193 174.697 147.157 174.789 Z M 147.514 173.599 C 146.92 172.748 146.34 171.92 145.76 171.087 C 145.761 171.069 145.765 171.046 145.768 171.026 C 146.444 171.115 147.122 171.205 147.806 171.295 C 147.794 172.102 147.684 172.842 147.514 173.599 Z" fill="#317F8B" style=""/>
  <path d="M 147.132 174.556 C 146.947 174.306 146.771 174.046 146.593 173.792 C 145.997 172.939 145.403 172.087 144.803 171.236 C 144.764 171.183 144.687 171.123 144.633 171.132 C 144.042 171.201 143.47 171.362 142.915 171.598 C 142.05 171.966 141.335 172.582 140.675 173.281 C 139.971 174.019 139.331 174.824 138.768 175.696 C 138.199 176.574 137.657 177.471 137.11 178.364 C 137.076 178.415 137.052 178.517 137.076 178.557 C 137.219 178.782 137.377 178.995 137.541 179.23 C 138.018 178.829 138.474 178.446 138.933 178.062 C 139.549 177.544 140.164 177.028 140.781 176.513 C 141.003 176.33 141.255 176.329 141.448 176.5 C 141.722 176.745 141.71 177.169 141.413 177.415 C 140.386 178.278 139.356 179.138 138.33 179.999 C 138.28 180.041 138.231 180.081 138.186 180.122 C 138.198 180.156 138.201 180.174 138.21 180.185 C 138.342 180.378 138.483 180.566 138.608 180.761 C 138.666 180.849 138.721 180.855 138.808 180.826 C 140.606 180.236 142.364 179.537 144.005 178.522 C 144.61 178.149 145.184 177.728 145.691 177.204 C 146.347 176.521 146.808 175.695 147.159 174.789 C 147.193 174.697 147.186 174.632 147.132 174.556 Z M 145.331 175.856 C 144.547 176.502 143.437 176.345 142.848 175.498 C 142.255 174.653 142.405 173.439 143.182 172.782 C 143.944 172.139 145.054 172.306 145.649 173.152 C 146.238 173.993 146.093 175.225 145.331 175.856 Z" fill="white" style=""/>
  <path d="M 147.514 173.599 C 146.92 172.749 146.339 171.92 145.76 171.087 C 145.761 171.067 145.765 171.047 145.768 171.026 C 146.444 171.116 147.122 171.205 147.807 171.296 C 147.794 172.102 147.684 172.842 147.514 173.599 Z" fill="#DB2C2C" style=""/>
  <path d="M 138.693 173.89 C 138.015 174.901 137.336 175.914 136.646 176.943 C 135.873 176.666 135.074 176.381 134.253 176.09 C 135.102 175.101 136 174.239 137.209 173.875 C 137.732 173.718 138.334 173.731 138.693 173.89 Z" fill="#DB2C2C" style=""/>
  <path d="M 142.1 183.021 C 141.528 183.632 140.861 184.089 140.14 184.503 C 140.095 183.534 140.052 182.585 140.008 181.656 C 141.098 181.191 142.164 180.739 143.237 180.282 C 143.278 180.606 143.227 180.947 143.132 181.283 C 142.936 181.967 142.562 182.524 142.1 183.021 Z" fill="#DB2C2C" style=""/>
  <path d="M 145.649 173.152 C 145.054 172.306 143.943 172.14 143.181 172.782 C 142.404 173.439 142.255 174.653 142.848 175.498 C 143.436 176.345 144.546 176.503 145.331 175.856 C 146.093 175.225 146.238 173.993 145.649 173.152 Z M 144.803 175.142 C 144.405 175.472 143.821 175.384 143.512 174.95 C 143.192 174.502 143.279 173.844 143.703 173.5 C 144.1 173.174 144.694 173.268 144.993 173.705 C 145.305 174.159 145.219 174.797 144.803 175.142 Z" fill="#317F8B" style=""/>
  <path d="M 144.802 175.142 C 144.405 175.472 143.821 175.384 143.51 174.95 C 143.192 174.502 143.278 173.844 143.702 173.5 C 144.1 173.175 144.694 173.268 144.992 173.705 C 145.304 174.159 145.22 174.797 144.802 175.142 Z" fill="#22A7F0" style=""/>
  <path d="M 171.072 162.106 C 171.072 162.106 167.306 160.15 163.768 161.905 C 160.381 163.586 157.984 175.552 162.373 178.584 C 165.082 180.455 166.925 178.802 168.458 179.288 C 170.731 180.007 175.394 167.686 171.072 162.106 Z" fill="white" style=""/>
  <g opacity="0.35" transform="matrix(0.338186, 0, 0, 0.371694, 53.040766, 49.51581)" style="">
    <path d="M354.037 323.861C352.717 337.356 345.564 350.366 341.284 349.133C336.75 347.828 331.299 352.276 323.29 347.242C317.091 343.344 315.472 333.965 316.565 324.729C317.302 330.117 319.391 334.734 323.29 337.185C331.299 342.213 336.632 339.876 341.284 339.076C347.034 338.084 351.721 331.828 354.037 323.861Z" fill="#317F8B"/>
  </g>
  <path d="M 165.15 180.263 C 164.236 180.263 163.179 180.043 162 179.23 C 160.945 178.501 160.183 177.322 159.736 175.725 C 159.36 174.385 159.219 172.751 159.329 171.002 C 159.46 168.931 159.925 166.805 160.639 165.018 C 161.185 163.652 162.122 161.883 163.48 161.209 C 167.267 159.329 171.204 161.33 171.37 161.416 L 171.506 161.487 L 171.603 161.612 C 173.581 164.166 173.695 167.693 173.443 170.202 C 173.158 173.029 172.247 176.028 171.064 178.029 C 169.878 180.033 168.886 180.218 168.263 180.021 C 167.858 179.893 167.347 179.982 166.755 180.086 C 166.287 180.168 165.75 180.263 165.15 180.263 Z M 166.992 161.936 C 165.932 161.936 164.949 162.158 164.057 162.6 C 163.322 162.966 162.542 164.07 161.918 165.631 C 161.275 167.238 160.839 169.234 160.722 171.108 C 160.513 174.417 161.252 176.906 162.745 177.938 C 164.251 178.978 165.413 178.775 166.536 178.578 C 167.262 178.451 167.947 178.331 168.651 178.553 C 168.732 178.568 169.313 178.324 170.132 176.772 C 172.041 173.15 173.252 166.312 170.64 162.733 C 170.343 162.599 169.581 162.281 168.584 162.091 C 168.037 161.987 167.505 161.936 166.992 161.936 Z" fill="#317F8B" style=""/>
</svg>