<svg width="18" height="18" viewBox="0 0 18 18" fill="none" xmlns="http://www.w3.org/2000/svg">
<path d="M10.5 10.5H3V12H10.5V10.5Z" fill="#767575"/>
<path fill-rule="evenodd" clip-rule="evenodd" d="M4.5 1.5C4.5 0.671573 5.17157 0 6 0H16.5C17.3284 0 18 0.671573 18 1.5V12C18 12.8284 17.3284 13.5 16.5 13.5H13.5V16.5C13.5 17.3284 12.8284 18 12 18H1.5C0.671573 18 0 17.3284 0 16.5V6C0 5.17157 0.671573 4.5 1.5 4.5H4.5V1.5ZM6 4.5H12C12.8284 4.5 13.5 5.17157 13.5 6V12H16.5V1.5H6V4.5ZM12 6H1.5V16.5H12V6Z" fill="#767575"/>
</svg>
